<svg width="32" height="32" viewBox="0 0 32 32" fill="none" xmlns="http://www.w3.org/2000/svg">
<path d="M4 20V22H8.586L2 28.586L3.414 30L10 23.414V28H12V20H4ZM24 21H26V26H24V21ZM20 16H22V26H20V16ZM16 18H18V26H16V18Z" fill="black"/>
<path d="M28 2H4C3.46973 2.00053 2.96133 2.21141 2.58637 2.58637C2.21141 2.96133 2.00053 3.46973 2 4V16H4V13H28.001L28.002 28H16V30H28C28.5302 29.9992 29.0384 29.7882 29.4133 29.4133C29.7882 29.0384 29.9992 28.5302 30 28V4C29.9995 3.46973 29.7886 2.96133 29.4136 2.58637C29.0387 2.21141 28.5303 2.00053 28 2ZM12 11H4V4H12V11ZM14 11V4H28V11H14Z" fill="black"/>
</svg>
