<svg width="30" height="26" viewBox="0 0 30 26" fill="none" xmlns="http://www.w3.org/2000/svg">
<path d="M15.0002 23.1734C15.0243 23.3751 15.002 23.5797 14.935 23.7715C14.868 23.9633 14.758 24.1372 14.6135 24.28C14.3637 24.5284 14.0258 24.6677 13.6735 24.6677C13.3213 24.6677 12.9833 24.5284 12.7335 24.28L7.40017 18.9467C7.25137 18.8037 7.13779 18.6281 7.06838 18.4338C6.99897 18.2394 6.97562 18.0316 7.00017 17.8267V11L0.613508 2.82669C0.396986 2.54873 0.299286 2.19636 0.341759 1.84659C0.384231 1.49682 0.563421 1.17808 0.840175 0.96002C1.07476 0.771806 1.36609 0.668432 1.66684 0.666687H20.3335C20.6343 0.668432 20.9256 0.771806 21.1602 0.96002C21.4369 1.17808 21.6161 1.49682 21.6586 1.84659C21.7011 2.19636 21.6034 2.54873 21.3868 2.82669L15.0002 11V23.1734ZM4.33351 3.33335L9.66684 10.08V17.44L12.3335 20.1067V10.0667L17.6668 3.33335M16.3335 19.3334L23.0002 26L29.6668 19.3334H16.3335Z" fill="black"/>
</svg>
