<svg width="32" height="32" viewBox="0 0 32 32" fill="none" xmlns="http://www.w3.org/2000/svg">
<g clip-path="url(#clip0_260_2829)">
<path d="M26.6667 2.66663H5.33334C4.00001 2.66663 2.66667 3.86663 2.66667 5.33329V9.34663C2.66667 10.3066 3.24001 11.1333 4.00001 11.6V26.6666C4.00001 28.1333 5.46667 29.3333 6.66667 29.3333H25.3333C26.5333 29.3333 28 28.1333 28 26.6666V11.6C28.76 11.1333 29.3333 10.3066 29.3333 9.34663V5.33329C29.3333 3.86663 28 2.66663 26.6667 2.66663ZM25.3333 26.6666H6.66667V12H25.3333V26.6666ZM26.6667 9.33329H5.33334V5.33329H26.6667V9.33329Z" fill="black"/>
<path d="M20 16H12V18.6667H20V16Z" fill="black"/>
</g>
<defs>
<clipPath id="clip0_260_2829">
<rect width="32" height="32" fill="white"/>
</clipPath>
</defs>
</svg>
