<svg width="36" height="36" viewBox="0 0 36 36" fill="none" xmlns="http://www.w3.org/2000/svg">
<path d="M28.5 25.5V17.7C27.75 17.85 27 18 26.25 18H25.5V27H10.5V16.5C10.5 12.3 13.8 9 18 9C18.15 7.05 19.05 5.4 20.25 4.05C19.8 3.45 18.9 3 18 3C16.35 3 15 4.35 15 6V6.45C10.5 7.8 7.5 11.85 7.5 16.5V25.5L4.5 28.5V30H31.5V28.5L28.5 25.5ZM15 31.5C15 33.15 16.35 34.5 18 34.5C19.65 34.5 21 33.15 21 31.5H15ZM31.5 9.75C31.5 12.6 29.1 15 26.25 15C23.4 15 21 12.6 21 9.75C21 6.9 23.4 4.5 26.25 4.5C29.1 4.5 31.5 6.9 31.5 9.75Z" fill="black"/>
</svg>
