<svg width="24" height="24" viewBox="0 0 24 24" fill="none" xmlns="http://www.w3.org/2000/svg">
<path d="M5 21C4.45 21 3.97933 20.8043 3.588 20.413C3.19667 20.0217 3.00067 19.5507 3 19V5C3 4.45 3.196 3.97933 3.588 3.588C3.98 3.19667 4.45067 3.00067 5 3H13C13.2833 3 13.521 3.096 13.713 3.288C13.905 3.48 14.0007 3.71733 14 4C14 4.28333 13.904 4.521 13.712 4.713C13.52 4.905 13.2827 5.00067 13 5H5V19H19V11C19 10.7167 19.096 10.4793 19.288 10.288C19.48 10.0967 19.7173 10.0007 20 10C20.2833 10 20.521 10.096 20.713 10.288C20.905 10.48 21.0007 10.7173 21 11V19C21 19.55 20.8043 20.021 20.413 20.413C20.0217 20.805 19.5507 21.0007 19 21H5ZM9 17C8.71667 17 8.47933 16.904 8.288 16.712C8.09667 16.52 8.00067 16.2827 8 16C8 15.7167 8.096 15.4793 8.288 15.288C8.48 15.0967 8.71733 15.0007 9 15H15C15.2833 15 15.521 15.096 15.713 15.288C15.905 15.48 16.0007 15.7173 16 16C16 16.2833 15.904 16.521 15.712 16.713C15.52 16.905 15.2827 17.0007 15 17H9ZM9 14C8.71667 14 8.47933 13.904 8.288 13.712C8.09667 13.52 8.00067 13.2827 8 13C8 12.7167 8.096 12.4793 8.288 12.288C8.48 12.0967 8.71733 12.0007 9 12H15C15.2833 12 15.521 12.096 15.713 12.288C15.905 12.48 16.0007 12.7173 16 13C16 13.2833 15.904 13.521 15.712 13.713C15.52 13.905 15.2827 14.0007 15 14H9ZM9 11C8.71667 11 8.47933 10.904 8.288 10.712C8.09667 10.52 8.00067 10.2827 8 10C8 9.71667 8.096 9.47933 8.288 9.288C8.48 9.09667 8.71733 9.00067 9 9H15C15.2833 9 15.521 9.096 15.713 9.288C15.905 9.48 16.0007 9.71733 16 10C16 10.2833 15.904 10.521 15.712 10.713C15.52 10.905 15.2827 11.0007 15 11H9ZM18 9C17.7167 9 17.4793 8.904 17.288 8.712C17.0967 8.52 17.0007 8.28267 17 8V7H16C15.7167 7 15.4793 6.904 15.288 6.712C15.0967 6.52 15.0007 6.28267 15 6C15 5.71667 15.096 5.47933 15.288 5.288C15.48 5.09667 15.7173 5.00067 16 5H17V4C17 3.71667 17.096 3.47933 17.288 3.288C17.48 3.09667 17.7173 3.00067 18 3C18.2833 3 18.521 3.096 18.713 3.288C18.905 3.48 19.0007 3.71733 19 4V5H20C20.2833 5 20.521 5.096 20.713 5.288C20.905 5.48 21.0007 5.71733 21 6C21 6.28333 20.904 6.521 20.712 6.713C20.52 6.905 20.2827 7.00067 20 7H19V8C19 8.28333 18.904 8.521 18.712 8.713C18.52 8.905 18.2827 9.00067 18 9Z" fill="black"/>
</svg>
