<svg width="24" height="24" viewBox="0 0 24 24" fill="none" xmlns="http://www.w3.org/2000/svg">
<path d="M19.435 4.06494H4.565C3.90196 4.06494 3.26607 4.32833 2.79723 4.79717C2.32839 5.26602 2.065 5.9019 2.065 6.56494V17.4349C2.065 18.098 2.32839 18.7339 2.79723 19.2027C3.26607 19.6715 3.90196 19.9349 4.565 19.9349H19.435C20.098 19.9349 20.7339 19.6715 21.2028 19.2027C21.6716 18.7339 21.935 18.098 21.935 17.4349V6.56494C21.935 5.9019 21.6716 5.26602 21.2028 4.79717C20.7339 4.32833 20.098 4.06494 19.435 4.06494ZM20.935 13.9949H14.515C13.9846 13.9949 13.4759 13.7842 13.1008 13.4092C12.7257 13.0341 12.515 12.5254 12.515 11.9949C12.515 11.4645 12.7257 10.9558 13.1008 10.5807C13.4759 10.2057 13.9846 9.99494 14.515 9.99494H20.935V13.9949ZM14.515 8.99494C13.7194 8.99494 12.9563 9.31101 12.3937 9.87362C11.8311 10.4362 11.515 11.1993 11.515 11.9949C11.515 12.7906 11.8311 13.5537 12.3937 14.1163C12.9563 14.6789 13.7194 14.9949 14.515 14.9949H20.935V17.4349C20.935 17.8328 20.777 18.2143 20.4957 18.4956C20.2144 18.7769 19.8328 18.9349 19.435 18.9349H4.565C4.16718 18.9349 3.78565 18.7769 3.50434 18.4956C3.22304 18.2143 3.065 17.8328 3.065 17.4349V6.56494C3.065 6.16712 3.22304 5.78559 3.50434 5.50428C3.78565 5.22298 4.16718 5.06494 4.565 5.06494H19.435C19.8328 5.06494 20.2144 5.22298 20.4957 5.50428C20.777 5.78559 20.935 6.16712 20.935 6.56494V8.99494H14.515Z" fill="black"/>
<path d="M14.519 12.9961C15.0713 12.9961 15.519 12.5484 15.519 11.9961C15.519 11.4438 15.0713 10.9961 14.519 10.9961C13.9667 10.9961 13.519 11.4438 13.519 11.9961C13.519 12.5484 13.9667 12.9961 14.519 12.9961Z" fill="black"/>
</svg>
